<svg xmlns="http://www.w3.org/2000/svg" viewBox="0 0 200 200">
  <!-- 背景 -->
  <rect width="200" height="200" fill="white" rx="20" ry="20"/>
  
  <!-- チェックリストの背景 -->
  <rect x="40" y="40" width="120" height="120" fill="#f0f0f0" rx="10" ry="10"/>
  
  <!-- チェックリストのライン -->
  <line x1="55" y1="70" x2="145" y2="70" stroke="#e0e0e0" stroke-width="2"/>
  <line x1="55" y1="100" x2="145" y2="100" stroke="#e0e0e0" stroke-width="2"/>
  <line x1="55" y1="130" x2="145" y2="130" stroke="#e0e0e0" stroke-width="2"/>
  
  <!-- チェックボックス -->
  <rect x="55" y="50" width="16" height="16" fill="#4285f4" rx="3" ry="3"/>
  <rect x="55" y="80" width="16" height="16" fill="white" stroke="#4285f4" stroke-width="2" rx="3" ry="3"/>
  <rect x="55" y="110" width="16" height="16" fill="white" stroke="#4285f4" stroke-width="2" rx="3" ry="3"/>
  
  <!-- チェックマーク -->
  <path d="M58 58 L62 62 L68 54" fill="none" stroke="white" stroke-width="2" stroke-linecap="round" stroke-linejoin="round"/>
  
  <!-- キラキラ効果 - 大きな星 -->
  <path d="M160 40 L164 50 L175 50 L166 56 L170 67 L160 60 L150 67 L154 56 L145 50 L156 50 Z" fill="#FFEB3B"/>
  
  <!-- キラキラ効果 - 小さい星 -->
  <path d="M180 70 L182 75 L188 75 L183 78 L185 84 L180 80 L175 84 L177 78 L172 75 L178 75 Z" fill="#FFC107"/>
  <path d="M30 140 L32 145 L38 145 L33 148 L35 154 L30 150 L25 154 L27 148 L22 145 L28 145 Z" fill="#FFC107"/>
  
  <!-- AIを表す回路パターン -->
  <path d="M25 25 L35 25 L35 35 L25 35 Z" fill="none" stroke="#4285f4" stroke-width="1.5"/>
  <path d="M35 30 L45 30" fill="none" stroke="#4285f4" stroke-width="1.5"/>
  <path d="M45 30 C55 30, 55 15, 65 15" fill="none" stroke="#4285f4" stroke-width="1.5"/>
  <path d="M65 15 L75 15" fill="none" stroke="#4285f4" stroke-width="1.5"/>
  
  <!-- キラキラ光線 -->
  <line x1="165" y1="45" x2="175" y2="35" stroke="#FFC107" stroke-width="1.5"/>
  <line x1="155" y1="45" x2="145" y2="35" stroke="#FFC107" stroke-width="1.5"/>
  <line x1="155" y1="60" x2="145" y2="70" stroke="#FFC107" stroke-width="1.5"/>
  <line x1="165" y1="60" x2="175" y2="70" stroke="#FFC107" stroke-width="1.5"/>
</svg>
