<svg width="200" height="200" viewBox="0 0 200 200" fill="none" xmlns="http://www.w3.org/2000/svg">
<path d="M80.3667 134.9L123.842 91.425L115.208 82.7917L80.3667 117.633L62.7917 100.058L54.1583 108.692L80.3667 134.9ZM45.8333 164.5C42.4417 164.5 39.5382 163.292 37.1229 160.877C34.7076 158.462 33.5 155.558 33.5 152.167V65.8333C33.5 62.4417 34.7076 59.5382 37.1229 57.1229C39.5382 54.7076 42.4417 53.5 45.8333 53.5H132.167C135.558 53.5 138.462 54.7076 140.877 57.1229C143.292 59.5382 144.5 62.4417 144.5 65.8333V152.167C144.5 155.558 143.292 158.462 140.877 160.877C138.462 163.292 135.558 164.5 132.167 164.5H45.8333ZM45.8333 152.167H132.167V65.8333H45.8333V152.167Z" fill="white"/>
<path d="M142.582 34.5383C138.538 30.4927 135.769 23.428 134.396 17C133.02 23.4293 130.255 30.4955 126.209 34.5411C122.165 38.5839 115.098 41.352 108.672 42.7284C115.101 44.1021 122.166 46.8686 126.211 50.9143C130.255 54.9585 133.023 62.0247 134.399 68.4526C135.772 62.0233 138.54 54.9572 142.583 50.9116C146.627 46.8674 153.694 44.1007 160.121 42.7242C153.693 41.3505 146.627 38.5826 142.582 34.5383Z" fill="white"/>
<path d="M168.851 66.9306C166.437 64.5154 164.78 60.2926 163.96 56.4529C163.138 60.2926 161.487 64.5152 159.07 66.9319C156.653 69.3459 152.432 71.0008 148.592 71.8229C152.433 72.6449 156.653 74.2971 159.07 76.7138C161.487 79.1291 163.141 83.3517 163.962 87.1915C164.783 83.3503 166.437 79.1291 168.852 76.7125C171.267 74.2971 175.49 72.6434 179.328 71.8201C175.49 70.9995 171.267 69.3459 168.851 66.9306Z" fill="white"/>
<path d="M126.011 75.1932C125.321 78.4167 123.935 81.9629 121.906 83.9913C119.878 86.0181 116.333 87.407 113.11 88.0972C116.333 88.7889 119.878 90.1736 121.906 92.2032C123.935 94.2314 125.323 97.7748 126.014 101C126.703 97.7748 128.09 94.2315 130.119 92.2019C132.146 90.1738 135.691 88.7861 138.914 88.0946C135.691 87.4056 132.146 86.0182 130.118 83.9899C128.09 81.9631 126.7 78.4169 126.011 75.1932Z" fill="white"/>
</svg>
